# xmcd
#
# Track frame offsets: 
#        150
#        19477
#        33239
#        54524
#        68767
#        94024
#        110397
#        124878
#        132826
#        141653
#        156992
#        172075
#        180738
#        202330
#
# Disc length: 2868 seconds
#
# Revision: 6
# Processed by: cddbd v1.5.2PL0 Copyright (c) Steve Scherf et al.
# Submitted via: ExactAudioCopyFreeDBPlugin 1.0
#
DISCID=d50b320e
DTITLE=Nickel Creek - Why Should The Fire Die?
DYEAR=2005
DGENRE=Country
TTITLE0=When In Rome
TTITLE1=Somebody More Like You
TTITLE2=Jealous Of The Moon
TTITLE3=Scotch and Chocolate
TTITLE4=Can't Complain
TTITLE5=Tomorrow Is A Long Time
TTITLE6=Eveline
TTITLE7=Stumptown
TTITLE8=Anthony
TTITLE9=Best Of Luck
TTITLE10=Doubting Thomas
TTITLE11=First And Last Waltz
TTITLE12=Helena
TTITLE13=Why Should The Fire Die?
EXTD=
EXTT0=
EXTT1=
EXTT2=
EXTT3=
EXTT4=
EXTT5=
EXTT6=
EXTT7=
EXTT8=
EXTT9=
EXTT10=
EXTT11=
EXTT12=
EXTT13=
PLAYORDER=
